<?xml version="1.0" encoding="utf-8"?>
<!-- Generator: Adobe Illustrator 27.1.0, SVG Export Plug-In . SVG Version: 6.00 Build 0)  -->
<svg version="1.1" id="Layer_1" xmlns="http://www.w3.org/2000/svg" xmlns:xlink="http://www.w3.org/1999/xlink" x="0px" y="0px"
	 viewBox="0 0 450 450" style="enable-background:new 0 0 450 450;" xml:space="preserve">
<style type="text/css">
	.st0{fill:#FAF6F6;}
</style>
<g>
	<g>
		<g>
			<path class="st0" d="M41.38,154.61c0.47-23.59,4.11-46.72,17.51-67.04c12.4-18.82,29.38-31.5,50.85-38.72
				c21.02-7.08,42.66-7.09,64.33-7.12c41.64-0.07,83.28,0,124.9,0.4c23.4,0.23,45.79,5.17,65.56,18.33
				c22.3,14.85,35.89,36,40.43,62.18c2.68,15.47,3.98,31.36,4.05,47.06c0.2,44.8-0.28,89.6-1.01,134.4
				c-0.33,19.69-4.71,38.64-15.09,55.7c-12.46,20.47-30.2,34.05-53.13,41.45c-20.85,6.72-42.23,6.95-63.67,6.99
				c-40.86,0.08-81.72-0.03-122.58-0.3c-21.43-0.14-42.28-3.77-61.19-14.41c-22.09-12.43-36.82-30.93-44.4-55.29
				c-5.11-16.41-6.09-33.26-6.87-50.2C40.95,285.07,40.7,188.94,41.38,154.61z M77.07,314.55c1.85,17.61,9.29,33.31,24.14,44.75
				c14.5,11.18,31.46,14.58,48.75,14.99c55,1.3,110.05,3.34,165.01-1.73c12.37-1.15,23.66-5.45,33.61-12.87
				c19.03-14.16,25.58-34.69,26.14-56.87c1.02-41.23,0.82-82.48,0.67-123.72c-0.06-14.77-0.76-29.59-2.34-44.26
				c-1.73-16.05-8.28-30.14-20.59-41.2c-13.61-12.22-30.16-16.92-47.77-17.29c-44.77-0.89-89.56-1.53-134.34-1.25
				c-16.41,0.11-33.04,0.25-49.17,5.41c-27.31,8.72-42.16,29.46-44.16,55.14C74.52,167.88,74.88,293.8,77.07,314.55z"/>
			<path class="st0" d="M225.47,130.77c51.17-0.4,94.69,41.69,94.49,94.87c-0.2,52.89-44.38,94.38-95.35,93.95
				c-52.1-0.42-94.98-42.98-94.39-95.38C130.83,171.77,173.24,130.13,225.47,130.77z M286.22,225.82
				c1.03-32.32-26.81-61.5-60.95-61.53c-33.57-0.03-61.16,27.52-61.16,60.13c0,34.54,27.07,61.67,61.6,61.61
				C258.7,286,286.21,258.6,286.22,225.82z"/>
			<path class="st0" d="M323.32,148.89c-12.27,1.13-22.06-9.94-22.38-21.62c-0.33-11.98,10.49-22.57,22.58-22.38
				c12.42,0.18,22.92,10.51,22.44,22.6C345.52,138.64,336.47,150,323.32,148.89z"/>
		</g>
	</g>
</g>
</svg>
