<?xml version="1.0" encoding="utf-8"?>
<!-- Generator: Adobe Illustrator 27.1.0, SVG Export Plug-In . SVG Version: 6.00 Build 0)  -->
<svg version="1.1" id="Layer_1" xmlns="http://www.w3.org/2000/svg" xmlns:xlink="http://www.w3.org/1999/xlink" x="0px" y="0px"
	 viewBox="0 0 450 450" style="enable-background:new 0 0 450 450;" xml:space="preserve">
<style type="text/css">
	.st0{fill:#FAF6F6;}
</style>
<g>
	<g>
		<g>
			<path class="st0" d="M104.62,66.57c-21.43,0-38.81,17.37-38.81,38.81c0,21.43,17.37,38.81,38.81,38.81s38.81-17.37,38.81-38.81
				C143.43,83.95,126.06,66.57,104.62,66.57z"/>
			<rect x="69.58" y="170.18" class="st0" width="70.08" height="213.25"/>
			<path class="st0" d="M306.19,165.16c-26.96,0-45.91,12.86-59.15,29.29v-24.27h-70.08v213.25h70.08V258.47
				c1.9-26.84,21.06-33.85,34.66-33.85c14.32,0,32.4,6.97,32.4,46.15v112.65h70.08V270.78v-37.55
				C384.18,233.23,381.04,165.16,306.19,165.16z"/>
		</g>
	</g>
</g>
</svg>
